HIERARCHY
ROOT root     
{
	OFFSET 0.0000 0.0000 0.0000
	CHANNELS 6 Xposition Yposition Zposition Zrotation Yrotation Xrotation
	JOINT pelvis   
	{
		OFFSET 0.0000 0.0000 0.0000
		CHANNELS 3 Zrotation Yrotation Xrotation
		JOINT thorax   
		{
			OFFSET 0.0000 23.0750 -5.0000
			CHANNELS 3 Zrotation Yrotation Xrotation
			JOINT rclavicle
			{
				OFFSET 0.0000 28.0009 0.0000
				CHANNELS 3 Zrotation Yrotation Xrotation
				JOINT rhumerus 
				{
					OFFSET -18.5725 5.5939 0.0000
					CHANNELS 3 Zrotation Yrotation Xrotation
					JOINT rradius  
					{
						OFFSET -24.8459 0.0000 0.0000
						CHANNELS 3 Zrotation Yrotation Xrotation
						JOINT rhand    
						{
							OFFSET -24.5477 0.0000 0.0000
							CHANNELS 3 Zrotation Yrotation Xrotation
							End Site
							{
								OFFSET -8.1826 0.0000 0.0000
							}
						}
					}
				}
			}
			JOINT lclavicle
			{
				OFFSET 0.0000 28.0009 0.0000
				CHANNELS 3 Zrotation Yrotation Xrotation
				JOINT lhumerus 
				{
					OFFSET 18.5725 5.5939 0.0000
					CHANNELS 3 Zrotation Yrotation Xrotation
					JOINT lradius  
					{
						OFFSET 24.8459 0.0000 0.0000
						CHANNELS 3 Zrotation Yrotation Xrotation
						JOINT lhand    
						{
							OFFSET 24.5477 0.0000 0.0000
							CHANNELS 3 Zrotation Yrotation Xrotation
							End Site
							{
								OFFSET 8.1826 0.0000 0.0000
							}
						}
					}
				}
			}
			JOINT head     
			{
				OFFSET 0.0000 35.2030 0.0000
				CHANNELS 3 Zrotation Yrotation Xrotation
				End Site
				{
					OFFSET 0.0000 11.7343 0.0000
				}
			}
		}
		JOINT rfemur   
		{
			OFFSET -8.2817 0.0000 0.0000
			CHANNELS 3 Zrotation Yrotation Xrotation
			JOINT rtibia   
			{
				OFFSET 0.0000 -43.3627 0.0000
				CHANNELS 3 Zrotation Yrotation Xrotation
				JOINT rfoot    
				{
					OFFSET 0.0000 -38.2947 0.0000
					CHANNELS 3 Zrotation Yrotation Xrotation
					JOINT rtoes    
					{
						OFFSET 0.0000 0.0000 16.6054
						CHANNELS 3 Zrotation Yrotation Xrotation
						End Site
						{
							OFFSET 0.0000 0.0000 5.5351
						}
					}
				}
			}
		}
		JOINT lfemur   
		{
			OFFSET 8.2817 0.0000 0.0000
			CHANNELS 3 Zrotation Yrotation Xrotation
			JOINT ltibia   
			{
				OFFSET 0.0000 -43.3627 0.0000
				CHANNELS 3 Zrotation Yrotation Xrotation
				JOINT lfoot    
				{
					OFFSET 0.0000 -38.2947 0.0000
					CHANNELS 3 Zrotation Yrotation Xrotation
					JOINT ltoes    
					{
						OFFSET 0.0000 0.0000 16.6054
						CHANNELS 3 Zrotation Yrotation Xrotation
						End Site
						{
							OFFSET 0.0000 0.0000 5.5351
						}
					}
				}
			}
		}
	}
}
MOTION
Frames: 9
Frame Time: .0333333
-5.151 79.23 8.8336 -96.517 -86.2336 115.255 0 -0 0 -2.29056 -9.23579 16.9047 28.6901 -14.3553 3.38423e-05 50.9447 -13.5758 8.93421 -0 49.8127 -0 1.43147 4.7054 0.0587985 -14.8792 13.8819 -2.96674e-05 -41.5272 -9.0837 -0.284752 0 -79.9778 0 1.91206 3.14858 0.0526016 6.48116 4.96564 -22.8499 13.0826 -10.2755 -59.8735 -0 -0 42.1049 4.2026e-07 -5.62788 0.9678 -0.0953983 -2.47919e-07 -35.4618 -5.66033 16.8492 -32.1145 -0 -0 55.657 8.05314e-05 10.9566 -19.6883 -3.73181 5.4274e-05 -36.7656 
-5.8892 79.13 8.8213 -95.1591 -86.3802 113.836 0 -0 0 -2.17207 -9.48065 16.9037 28.6161 -14.6056 -4.54965e-06 50.8546 -14.0639 8.85861 -4.04019e-07 50.4468 -8.5767e-07 1.54815 4.61107 0.0623018 -14.7537 13.9801 -3.12762e-05 -41.3897 -8.97202 -0.273814 -1.38547e-06 -80.4241 1.17128e-06 1.83645 3.15733 0.050602 6.66696 4.88458 -22.9238 13.4333 -10.4546 -60.0288 -0 -0 40.4968 -1.47035e-06 -5.5883 1.18882 -0.116302 3.02086e-07 -36.1454 -5.57579 16.859 -31.4706 -0 -0 55.6685 -1.56175e-05 10.8301 -19.7941 -3.70649 -4.03878e-05 -37.6945 
-6.641 79.024 8.8073 -93.8288 -86.5646 112.44 0 -0 0 -2.06295 -9.71209 16.9094 28.5146 -14.8514 1.8071e-05 50.7862 -14.5411 8.76919 -4.14419e-07 51.0861 -8.67166e-07 1.68054 4.51446 0.0661983 -14.6389 14.0831 6.03236e-06 -41.2834 -8.83964 -0.281535 0 -80.8741 0 1.76875 3.17124 0.0489991 6.84919 4.8137 -23.0144 13.7445 -10.6066 -60.1164 -0 -0 38.9429 8.55748e-07 -5.57977 1.3296 -0.1299 8.37229e-07 -36.7145 -5.48752 16.8479 -30.8003 -0 -0 55.6716 7.6588e-05 10.7226 -19.8809 -3.68448 -1.2667e-05 -38.6475 
-7.4066 78.911 8.7906 -92.5248 -86.7424 111.062 0 -0 0 -1.96288 -9.93215 16.9169 28.3932 -15.1013 -3.08007e-05 50.7271 -14.9957 8.69142 -0 51.7217 -0 1.81457 4.42791 0.0701987 -14.5392 14.1875 5.02321e-05 -41.2009 -8.68173 -0.304914 0 -81.3332 0 1.71085 3.19143 0.0476991 7.02921 4.7507 -23.1132 14.0153 -10.7364 -60.1379 -0 -0 37.4531 -2.35128e-06 -5.59721 1.39515 -0.136698 1.12998e-06 -37.142 -5.39589 16.8098 -30.1096 -0 -0 55.6721 1.76382e-05 10.6324 -19.9484 -3.66468 -3.1955e-05 -39.6111 
-8.1905 78.792 8.7708 -91.3148 -86.9141 109.758 0 -0 0 -1.87596 -10.1321 16.9415 28.2694 -15.3297 -0.000135763 50.6757 -15.4656 8.56516 -0 52.3907 -0 1.98218 4.33518 0.0749979 -14.4491 14.2954 -8.4995e-05 -41.1474 -8.5131 -0.338428 0 -81.7827 0 1.66005 3.21093 0.0465021 7.2069 4.69074 -23.2165 14.2323 -10.8372 -60.0693 -0 -0 36.0372 7.25307e-07 -5.63454 1.40237 -0.138297 1.68835e-06 -37.4467 -5.29827 16.7625 -29.3782 -0 -0 55.666 3.47235e-05 10.5507 -19.9925 -3.64375 -1.64588e-05 -40.6084 
-8.9903 78.665 8.7471 -90.0442 -87.1012 108.386 0 -0 0 -1.7996 -10.3203 16.9645 28.1381 -15.5612 4.65942e-05 50.617 -15.9126 8.45481 -0 53.0512 -0 2.14471 4.2589 0.0798012 -14.3727 14.4001 8.84715e-06 -41.1095 -8.31954 -0.380135 0 -82.2269 0 1.61522 3.23445 0.0456013 7.3807 4.63229 -23.3106 14.3929 -10.9137 -59.9257 -0 -0 34.7204 7.02685e-07 -5.68467 1.38289 -0.137603 -1.12688e-06 -37.641 -5.19903 16.6963 -28.6266 -0 -0 55.659 7.17345e-05 10.4779 -20.0149 -3.62193 -4.14569e-05 -41.6018 
-9.8075 78.529 8.7192 -88.7808 -87.2871 107.011 0 -0 0 -1.73475 -10.4937 16.9867 28.0068 -15.7893 -0.000197694 50.5497 -16.3476 8.3388 -4.60844e-07 53.7151 -9.10058e-07 2.31071 4.19242 0.0846005 -14.3105 14.505 -5.49362e-05 -41.0881 -8.10627 -0.425972 -2.51071e-06 -82.6668 2.20824e-06 1.57256 3.25923 0.0447021 7.54887 4.57226 -23.3922 14.4843 -10.957 -59.71 -0 -0 33.5253 -2.33816e-06 -5.74396 1.37526 -0.138301 -5.54944e-07 -37.7799 -5.09802 16.6221 -27.8477 -0 -0 55.6514 -1.81323e-05 10.4077 -20.0185 -3.59782 2.41857e-05 -42.5946 
-10.64 78.385 8.6864 -87.4026 -87.4964 105.521 0 -0 0 -1.67603 -10.6562 16.9975 27.8742 -16.0148 3.28086e-05 50.4699 -16.7612 8.23085 -0 54.3599 -0 2.46722 4.14004 0.0892009 -14.262 14.6067 0.000140213 -41.076 -7.86513 -0.475481 0 -83.0969 0 1.52806 3.28665 0.0437994 7.70593 4.50908 -23.4502 14.4972 -10.9574 -59.4406 -0 -0 32.4844 -1.30119e-06 -5.81551 1.42382 -0.145001 -2.75432e-07 -37.9252 -4.99638 16.543 -27.0573 -0 -0 55.647 7.3443e-05 10.3376 -20.0069 -3.57115 -2.9968e-05 -43.5761 
-11.493 78.231 8.6508 -86.2125 -87.7054 104.198 0 -0 0 -1.63632 -10.7961 17.0188 27.7526 -16.2193 0.000142746 50.3827 -17.1721 8.08173 -4.86127e-07 55.0072 -9.33716e-07 2.63927 4.08153 0.0940997 -14.2241 14.7203 -9.04004e-05 -41.0841 -7.62116 -0.521902 1.08589e-06 -83.5005 -1.66996e-06 1.47714 3.3128 0.0427011 7.85028 4.44063 -23.491 14.4099 -10.9078 -59.1116 -0 -0 31.636 3.60417e-06 -5.8926 1.55973 -0.161003 2.57373e-08 -38.1388 -4.89742 16.4802 -26.2258 -0 -0 55.6344 -4.20114e-05 10.2616 -19.9859 -3.54074 2.98167e-05 -44.5633 
